<svg xmlns="http://www.w3.org/2000/svg" width="25.526" height="23.556" viewBox="0 0 25.526 23.556">
  <g id="icon_sns_kakao_1_" data-name="icon_sns_kakao (1)" transform="translate(0 0)">
    <path id="패스_43" data-name="패스 43" d="M12.763.048C5.714.048,0,4.552,0,10.111c0,3.594,2.389,6.746,5.982,8.527-.2.674-1.256,4.337-1.3,4.625,0,0-.025.217.115.3a.388.388,0,0,0,.305.019c.4-.056,4.656-3.045,5.393-3.564a16.085,16.085,0,0,0,2.267.158c7.049,0,12.763-4.506,12.763-10.063S19.812.048,12.763.048Z" transform="translate(0 -0.048)" fill="#100f0f"/>
    <path id="패스_44" data-name="패스 44" d="M5.095,12.23a.721.721,0,0,1-.736-.7V7.153H3.21a.721.721,0,1,1,0-1.443H6.98a.721.721,0,1,1,0,1.443H5.831v4.375A.721.721,0,0,1,5.095,12.23Zm6.457-.009a.605.605,0,0,1-.613-.325l-.365-.956H8.328l-.365.956a.6.6,0,0,1-.612.325,1.125,1.125,0,0,1-.469-.1c-.2-.093-.4-.351-.174-1.045L8.47,6.438a1.109,1.109,0,0,1,.981-.726,1.111,1.111,0,0,1,.982.728l1.761,4.634c.224.7.029.953-.174,1.047a1.124,1.124,0,0,1-.467.1ZM10.187,9.637l-.735-2.09-.735,2.09Zm3.191,2.486a.692.692,0,0,1-.705-.675v-5a.752.752,0,0,1,1.5,0v4.326h1.565a.676.676,0,1,1,0,1.351Zm4.091.1a.737.737,0,0,1-.736-.736V6.448a.736.736,0,1,1,1.473,0V8.03L20.26,5.975a.57.57,0,0,1,.409-.163.747.747,0,0,1,.724.685.576.576,0,0,1-.162.449L19.553,8.623l1.813,2.4a.736.736,0,1,1-1.175.887L18.461,9.623l-.255.255v1.606a.737.737,0,0,1-.736.738Z" transform="translate(0.612 1.345)" fill="#100f0f"/>
  </g>
</svg>
