<svg xmlns="http://www.w3.org/2000/svg" xmlns:xlink="http://www.w3.org/1999/xlink" width="37" height="35" viewBox="0 0 37 35"><defs><clipPath id="a"><ellipse cx="18.5" cy="17.5" rx="18.5" ry="17.5" transform="translate(447 6824)" fill="#fff" stroke="#000" stroke-width="1"/></clipPath></defs><g transform="translate(-447 -6824)" clip-path="url(#a)"><g transform="translate(446.967 6826.717)"><path d="M31.483,0H5.584A5.561,5.561,0,0,0,.033,5.571V18.785a5.561,5.561,0,0,0,5.551,5.571h8.983l2.826,4.6a1.011,1.011,0,0,0,.093.132.947.947,0,0,0,1.64.006.663.663,0,0,0,.095-.137l2.826-4.6h9.435a5.561,5.561,0,0,0,5.551-5.571V5.571A5.562,5.562,0,0,0,31.483,0Z" fill="#fff"/><path d="M8.766,9.7a2.857,2.857,0,0,0-1.829.847V7.137H4.785V16.1H6.959v-.7a2.064,2.064,0,0,0,1.807.927A3.17,3.17,0,0,0,11.8,12.981S11.687,9.7,8.766,9.7Zm-.474,4.732a1.383,1.383,0,1,1,1.383-1.383A1.383,1.383,0,0,1,8.292,14.434Z" fill="#1c1c1c"/><path d="M12.49,6.937V9.011s.982-.044.982,1.785V16.1h2.074V10.3S15.635,6.937,12.49,6.937Z" fill="#1c1c1c"/><path d="M20.617,9.73s-3.555,0-3.555,3.319a3.212,3.212,0,0,0,3.555,3.275s3.636-.006,3.636-3.275A3.265,3.265,0,0,0,20.617,9.73Zm0,4.7A1.383,1.383,0,1,1,22,13.051,1.383,1.383,0,0,1,20.618,14.434Z" fill="#1c1c1c"/><path d="M30.191,9.949v.6a2.353,2.353,0,0,0-1.805-.819,2.967,2.967,0,0,0-3.043,3.3s-.033,3.191,2.96,3.191a2.458,2.458,0,0,0,1.889-.819v.5a1.367,1.367,0,0,1-1.371,1.572H28.3v1.905h.836a3.124,3.124,0,0,0,3.143-3.362V9.949ZM28.9,14.434a1.383,1.383,0,1,1,1.383-1.383A1.383,1.383,0,0,1,28.9,14.434Z" fill="#1c1c1c"/></g></g></svg>