<svg xmlns="http://www.w3.org/2000/svg" xmlns:xlink="http://www.w3.org/1999/xlink" width="37" height="35" viewBox="0 0 37 35"><defs><clipPath id="a"><ellipse cx="18.5" cy="17.5" rx="18.5" ry="17.5" transform="translate(398 6824)" fill="#fff" stroke="#707070" stroke-width="1"/></clipPath></defs><g transform="translate(-398 -6824)" clip-path="url(#a)"><g transform="translate(398 6824.341)"><path d="M18.5.087C8.283.087,0,6.616,0,14.673c0,5.209,3.462,9.778,8.671,12.359-.284.977-1.821,6.287-1.882,6.7,0,0-.036.314.166.433A.563.563,0,0,0,7.4,34.2c.582-.081,6.749-4.414,7.817-5.165a23.315,23.315,0,0,0,3.285.229c10.217,0,18.5-6.531,18.5-14.586S28.717.087,18.5.087Z" fill="#fff"/><path d="M8.272,19.764A1.045,1.045,0,0,1,7.2,18.746V12.4H5.539a1.046,1.046,0,1,1,0-2.091H11A1.046,1.046,0,1,1,11,12.4H9.339v6.341A1.045,1.045,0,0,1,8.272,19.764Zm9.359-.013a.877.877,0,0,1-.889-.471l-.529-1.385H12.959L12.43,19.28a.874.874,0,0,1-.887.471,1.631,1.631,0,0,1-.679-.148c-.294-.135-.578-.509-.253-1.515l2.554-6.721a1.608,1.608,0,0,1,1.421-1.053,1.61,1.61,0,0,1,1.423,1.055l2.552,6.717c.325,1.01.042,1.382-.253,1.517a1.629,1.629,0,0,1-.677.148Zm-1.978-3.746-1.066-3.029-1.066,3.029Zm4.625,3.6a1,1,0,0,1-1.022-.979V11.382a1.089,1.089,0,0,1,2.178,0v6.271H23.7a.98.98,0,1,1,0,1.958l-3.424,0Zm5.929.143a1.068,1.068,0,0,1-1.067-1.067v-7.3a1.067,1.067,0,1,1,2.135,0v2.294L30.254,10.7a.826.826,0,0,1,.592-.237,1.083,1.083,0,0,1,1.049.993.835.835,0,0,1-.235.65l-2.433,2.431,2.628,3.48a1.067,1.067,0,1,1-1.7,1.286l-2.507-3.318-.37.37v2.328a1.069,1.069,0,0,1-1.067,1.069Z" fill="#1c1c1c"/></g></g></svg>