<svg xmlns="http://www.w3.org/2000/svg" xmlns:xlink="http://www.w3.org/1999/xlink" width="219.092" height="30.716" viewBox="0 0 219.092 30.716">
  <defs>
    <linearGradient id="linear-gradient" x1="0.5" y1="1" x2="0.5" gradientUnits="objectBoundingBox">
      <stop offset="0" stop-color="#33ade2"/>
      <stop offset="1" stop-color="#6abdae"/>
    </linearGradient>
  </defs>
  <g id="그룹_28" data-name="그룹 28" transform="translate(-299.42 -35.284)">
    <path id="패스_2" data-name="패스 2" d="M156.8,173.628c-1.484,0-2.937.743-2.971,3.646h5.706C159.638,174.371,158.288,173.628,156.8,173.628Z" transform="translate(242.773 -126.663)" fill="none"/>
    <path id="패스_3" data-name="패스 3" d="M49.943,166.5a7.991,7.991,0,0,0-6.078,2.363A6.9,6.9,0,0,0,38.4,166.5a6.775,6.775,0,0,0-4.727,1.857,3.3,3.3,0,0,0-3.106-1.857,3.23,3.23,0,0,0-3.411,3.376V189.22h6.854V175.176a2.63,2.63,0,0,1,2.6-2.9c1.114,0,2.565.776,2.565,3.072V189.22h6.684V175.344c0-2.3,1.486-3.072,2.6-3.072s2.566.776,2.566,3.072V189.22h6.954V175.75C57.978,168.694,54.231,166.5,49.943,166.5Z" transform="translate(272.266 -125.004)" fill="url(#linear-gradient)"/>
    <path id="패스_4" data-name="패스 4" d="M107.839,175.176a2.63,2.63,0,0,1,2.6-2.9c1.114,0,2.565.776,2.565,3.072V189.22h6.684V175.344c0-2.3,1.486-3.072,2.6-3.072s2.566.776,2.566,3.072V189.22h6.954V175.75c0-7.056-3.748-9.251-8.035-9.251a7.988,7.988,0,0,0-6.077,2.363,6.9,6.9,0,0,0-5.469-2.363,6.778,6.778,0,0,0-4.727,1.857,3.3,3.3,0,0,0-3.1-1.857,3.23,3.23,0,0,0-3.411,3.376V189.22h6.854Z" transform="translate(255.077 -125.004)" fill="url(#linear-gradient)"/>
    <path id="패스_5" data-name="패스 5" d="M154.739,166.5c-4.322,0-9.622,2.161-9.622,9.352v4.321c0,7.293,5.3,9.589,10.4,9.589a13.166,13.166,0,0,0,5.942-1.351c1.62-.945,2.43-2.363,1.722-4.018a2.425,2.425,0,0,0-2.667-1.283,7.914,7.914,0,0,0-1.587.506,8.949,8.949,0,0,1-3.274.44c-1.621,0-3.849-.777-3.849-3.984v-.034h12.086a14.591,14.591,0,0,0,.17-2.094C164.058,168.322,159.432,166.5,154.739,166.5Zm2.769,9.116H151.8c.034-2.9,1.486-3.646,2.971-3.646S157.609,172.711,157.508,175.615Z" transform="translate(244.802 -125.004)" fill="url(#linear-gradient)"/>
    <path id="패스_6" data-name="패스 6" d="M185.459,166.5a7.33,7.33,0,0,0-4.928,1.857,3.383,3.383,0,0,0-3.14-1.857,3.23,3.23,0,0,0-3.411,3.376V189.22h6.854V175.344a2.742,2.742,0,0,1,2.7-3.072c1.148,0,2.667.776,2.667,3.072V189.22h6.955V175.75C193.157,168.626,189.747,166.5,185.459,166.5Z" transform="translate(238.082 -125.004)" fill="url(#linear-gradient)"/>
    <path id="패스_7" data-name="패스 7" d="M213.151,182.277c0-.086.018-.166.025-.251a3.343,3.343,0,0,1-.815.075c-.574-.034-1.08-.27-1.08-1.283v-9.386h1.992a2.659,2.659,0,0,0,2.971-2.768,2.7,2.7,0,0,0-2.971-2.836h-1.992v-4.085a3.342,3.342,0,0,0-6.684,0v4.085h-1.114a2.7,2.7,0,0,0-2.971,2.836,2.659,2.659,0,0,0,2.971,2.768H204.6v9.521c0,5.1,2.6,6.922,7.09,6.922a6.493,6.493,0,0,0,3.241-.845,2.851,2.851,0,0,0,1.237-1.89c-.047,0-.09.014-.137.014A2.877,2.877,0,0,1,213.151,182.277Z" transform="translate(231.905 -123.118)" fill="url(#linear-gradient)"/>
    <path id="패스_8" data-name="패스 8" d="M236.167,182.239V182c0-1.249.979-1.62,2.43-3.038l4.322-4.187c2.8-2.734,4.9-4.9,4.9-8.676,0-5.03-4.085-7.664-8.846-7.664-4.187,0-7.292,1.418-9.014,4.22a3.174,3.174,0,0,0,.44,4.085,3.459,3.459,0,0,0,3.139.641,4.2,4.2,0,0,0,1.756-1.351,3.826,3.826,0,0,1,3.139-1.452,2.281,2.281,0,0,1,2.5,2.195c0,1.283-.709,2.194-2.058,3.409l-5.639,5.2c-2.835,2.6-4.187,4.322-4.187,8.846v.371c0,2.532,1.655,3.984,4.187,3.984h14.855v-5.841H236.673C236.3,182.745,236.167,182.577,236.167,182.239Z" transform="translate(225.263 -123.127)" fill="url(#linear-gradient)"/>
    <path id="패스_9" data-name="패스 9" d="M274.342,167.714a3.124,3.124,0,0,0-6.246,0v10.668h-4.017c-.911,0-1.181-.2-.979-.945l4.085-15.26a3.023,3.023,0,0,0-2.769-3.748c-1.722-.2-3.106.709-3.679,2.768l-4.626,16.949c-.945,3.443.641,5.773,4.727,5.773H268.1v4.659h6.246v-4.659h3.038v-5.537h-3.038Z" transform="translate(219.022 -123.118)" fill="url(#linear-gradient)"/>
    <path id="패스_10" data-name="패스 10" d="M296.731,158.438c-5,0-9.96,2.43-9.96,8.643v3.207c0,6.144,3.646,8.508,8.272,8.508a9.861,9.861,0,0,0,5.232-1.249v2.8c0,1.789-1.586,2.8-3.646,2.8a7.674,7.674,0,0,1-2.87-.439,11.806,11.806,0,0,0-1.755-.575,2.934,2.934,0,0,0-3.038.911,3.043,3.043,0,0,0,.337,4.051c1.554,1.284,4.153,2.026,7.5,2.026,5.672,0,9.891-2.971,9.891-8.508V167.081C306.689,160.868,301.727,158.438,296.731,158.438Zm3.544,12.154c0,1.79-1.62,2.667-3.511,2.667s-3.511-.878-3.511-3.106v-2.937c0-2.229,1.62-3.106,3.511-3.106s3.511.878,3.511,3.106Z" transform="translate(211.823 -123.127)" fill="url(#linear-gradient)"/>
    <path id="패스_11" data-name="패스 11" d="M219.872,185.773a2.867,2.867,0,0,0-2.852,2.626,3.952,3.952,0,0,1,.671-.06,2.316,2.316,0,0,1,2.3,1.857,3.293,3.293,0,0,1,.021,1.316,2.872,2.872,0,0,0-.137-5.74Z" transform="translate(228.062 -129.491)" fill="#3c99b9"/>
    <path id="패스_12" data-name="패스 12" d="M219.979,190.975a2.316,2.316,0,0,0-2.3-1.857,3.951,3.951,0,0,0-.671.06c-.008.084-.025.165-.025.251a2.877,2.877,0,0,0,2.877,2.877c.047,0,.09-.012.137-.014A3.293,3.293,0,0,0,219.979,190.975Z" transform="translate(228.069 -130.27)" fill="#3c99b9"/>
    <path id="패스_13" data-name="패스 13" d="M93.595,178.407a.293.293,0,0,0-.058.011.293.293,0,0,1,.077-.005C93.608,178.412,93.6,178.407,93.595,178.407Z" transform="translate(256.811 -127.776)" fill="#33ade2"/>
    <path id="패스_14" data-name="패스 14" d="M84.015,178.3l3.916-3.857a.685.685,0,0,1,1.072.166l1.821,3.306v-.926h0V175.01l0,0,0-.765c-.036-7.258-5.347-9.325-9.837-9.3-4.592.023-9.78,2.142-9.744,9.4l.016,3.262-.016,3.261c-.036,7.259,5.152,9.377,9.744,9.4,3.959.02,8.534-1.609,9.59-6.967.012-.064.028-.124.039-.188s.029-.122.04-.188l1.762.282a.2.2,0,0,0,.03,0,.3.3,0,0,0,.264-.443l-1.883-3.418-2.157-3.916a.3.3,0,0,0-.107-.109h0a.3.3,0,0,0-.044-.017h0a.362.362,0,0,0-.063-.017.319.319,0,0,0-.051-.014.3.3,0,0,0-.207.083l-4.181,3.964-1.895,1.8a.3.3,0,0,0,.005.443l1.851.3c-.009.068-.03.123-.042.187s-.027.126-.041.188a2.853,2.853,0,0,1-2.882,2.328c-1.452-.007-3-.96-2.988-3.357l.017-3.491h0v-.216h0L78.022,174c-.012-2.4,1.536-3.35,2.988-3.357s3.009.931,3.021,3.327l.013,2.72Z" transform="translate(262.003 -124.641)" fill="url(#linear-gradient)"/>
  </g>
</svg>
